<?xml version="1.0" standalone="no"?><!DOCTYPE svg PUBLIC "-//W3C//DTD SVG 1.1//EN" "http://www.w3.org/Graphics/SVG/1.1/DTD/svg11.dtd"><svg class="icon" width="200px" height="200.00px" viewBox="0 0 1024 1024" version="1.1" xmlns="http://www.w3.org/2000/svg"><path d="M10.998834 444.216486c4.774688-2.046295 13.983014-3.922065 13.983014-5.968359C25.834471 329.453455 83.812823 243.6796 147.418485 165.749875c60.024646-73.325562 144.945878-118.344047 235.83547-147.503747a339.173356 339.173356 0 0 1 120.731391-17.052456c55.932057 2.387344 112.205162 0 170.524562 0v150.061615h134.202831v136.419651h119.367194l4.945213-63.264613h79.464446V306.944213l-61.559367 2.557869v132.497585h-136.41965v135.225978h-153.472107v-149.038468h132.327061v-117.320899h-131.474438v-136.41965H356.14055V289.891757h156.200499l27.28393 26.431307v289.891757a314.617818 314.617818 0 0 1-17.052456 104.019983c-32.911241 99.927394-118.173522 143.922731-219.976686 109.988343a103.167361 103.167361 0 0 0-28.477602 0c-36.492256-43.995337-94.300083-75.542381-92.594838-150.402664H63.5204c-28.477602-16.029309-38.368027-34.104913-35.980683-58.66045 1.193672-12.107244 6.991507-30.182848-17.052456-30.523896z"  /><path d="M437.310241 1024c0-23.361865-18.416653-13.81249-30.353372-17.052456-36.321732-10.401998-78.270774-8.867277-114.933555-53.885762A316.493589 316.493589 0 0 0 539.624979 895.595004c72.472939-50.134221 98.904246-131.303913 129.087094-227.309242 13.81249 72.472939 6.650458 129.598668 7.84413 186.042298s0 113.057785 0 169.67194z"  /></svg>